<svg height="512" width="512" xmlns="http://www.w3.org/2000/svg"><path d="m465.4983521 500.5552979h-82.8837891l5.7825623-69.8729553h-40.7190247l-5.7825928 69.8729553h-171.7910461l-5.7825928-69.8729553h-40.7190475l5.7825851 69.8729553h-82.8837624l-46.5016441-302.8630524 116.374588-186.2475395h279.2507935l116.3746185 186.2475395zm-93.2442322-395.8663559h-74.6917725l5.0597534 34.93647h-93.2442169l5.0597687-34.93647h-74.6917725l-46.7425919 93.0033035 23.3712997 186.2475433h279.2507935l23.3713074-186.2475433zm-175.8871155 177.8150558c0-33.262085-9.6679535-54.1637573-17.3605652-37.5327148-7.6925964 16.6310425-7.6925812 58.4343872.0000153 75.0654297s17.3605499-4.2706299 17.3605499-37.5327149zm146.7330017-3.6149902c0-33.2621002-9.6679688-54.1637726-17.3605652-37.5327301s-7.6925964 58.4344025 0 75.0654449 17.3605652-4.2706299 17.3605652-37.5327148z"/></svg>